<svg xmlns="http://www.w3.org/2000/svg" width="555.215" height="96.67" viewBox="0 0 555.215 96.67">
  <g id="グループ_168" data-name="グループ 168" transform="translate(-2553.885 -525.485)">
    <g id="グループ_167" data-name="グループ 167">
      <path id="パス_555" data-name="パス 555" d="M2862.3,536.991a11.506,11.506,0,0,1,23.013,0v54.122c0,19.437-11.535,31.042-30.858,31.042-7.234,0-16.375-2.126-21.755-7.929-5.377,5.8-14.518,7.929-21.75,7.929-19.323,0-30.858-11.605-30.858-31.042V536.991a11.506,11.506,0,0,1,23.013,0h0v52.766a7.848,7.848,0,0,0,15.7,0V558.2a13.9,13.9,0,0,1,27.809,0v31.562a7.847,7.847,0,0,0,15.695,0V536.991Z" fill="#211815"/>
      <path id="パス_556" data-name="パス 556" d="M2744.428,610.343V590.928H2702.5v-.005c-.022,0-.043.005-.066.005a11,11,0,1,1,0-22c.023,0,.044.005.066.005v-.005h41.927V558.613c0-7.06-3.8-11.677-9.639-11.677h-36.735c-5.839,0-9.642,4.617-9.642,11.677v51.73a11.812,11.812,0,1,1-23.623,0V559.7c0-20.367,13.441-34.215,33.265-34.215h36.735c19.822,0,33.265,13.848,33.265,34.215v50.642a11.813,11.813,0,0,1-23.625,0Z" fill="#211815"/>
      <path id="パス_557" data-name="パス 557" d="M2553.887,610.343V560.651c0-22.538,13.442-35.165,33.806-35.165h35.553c17.65,0,32.178,13.034,32.178,32.041,0,19.824-12.085,33.4-32.45,33.4h-31.208v0a11,11,0,0,1,0-21.99h.05l.009,0,.009,0h29.015c6.828-.487,10.951-2.863,10.951-11.407,0-5.295-3.668-10.048-9.911-10.048h-35.553c-5.43,0-8.825,3.8-8.825,9.505v53.359h0a11.813,11.813,0,0,1-23.625,0Z" fill="#211815"/>
      <path id="パス_558" data-name="パス 558" d="M2840.076,557.807a7.37,7.37,0,1,0-14.741,0v15.744h14.741Z" fill="#47ad9f"/>
      <path id="パス_559" data-name="パス 559" d="M2592.354,572.559a7.37,7.37,0,1,0,0,14.741H2608.1V572.559Z" fill="#47ad9f"/>
      <path id="パス_560" data-name="パス 560" d="M2989.418,576.031a17.942,17.942,0,1,0-17.719,15.18,17.906,17.906,0,0,0,14.763-7.758l-.012-.008a4.022,4.022,0,0,0,.8-2.242,3.635,3.635,0,0,0-3.635-3.635c-1.944,0-3.386,2.273-3.386,2.273a10.785,10.785,0,1,1,1.5-10.6h-9.776a3.393,3.393,0,0,0,0,6.786v0h10.158v0Z" fill="#211815"/>
      <path id="パス_561" data-name="パス 561" d="M3078.8,576.031a17.935,17.935,0,1,0-2.954,7.422l-.012-.008a4.022,4.022,0,0,0,.795-2.242,3.634,3.634,0,0,0-3.635-3.635c-1.945,0-3.386,2.273-3.386,2.273a10.787,10.787,0,1,1,1.5-10.6h-9.774a3.393,3.393,0,0,0,0,6.786v0H3071.5v0Z" fill="#211815"/>
      <path id="パス_562" data-name="パス 562" d="M3031.157,553.584a5.822,5.822,0,1,0-5.821-5.82,5.72,5.72,0,0,0,5.821,5.82" fill="#211815"/>
      <path id="パス_563" data-name="パス 563" d="M2702.934,572.559a7.37,7.37,0,1,0,0,14.741h15.743V572.559Z" fill="#47ad9f"/>
      <path id="パス_564" data-name="パス 564" d="M3042.691,605.155h-.037c-.192.764-.385,1.831-.571,2.564l-.558,2.315h2.411l-.6-2.33c-.2-.729-.443-1.785-.645-2.549" fill="#211815"/>
      <path id="パス_565" data-name="パス 565" d="M2954.764,608.377c-1.139,0-1.527,1.254-1.527,2.486,0,1.418.465,2.5,1.536,2.5.932,0,1.442-.981,1.442-2.5,0-1.3-.423-2.486-1.451-2.486" fill="#211815"/>
      <path id="パス_566" data-name="パス 566" d="M3098.4,598.072H2904.221a51.263,51.263,0,0,1-7.092,21.408H3098.4a10.7,10.7,0,0,0,0-21.408M2945.371,609.89a6.353,6.353,0,0,1-4.313,1.353c-.335,0-.633-.027-.844-.042v4.393h-3.434V602.827a26.824,26.824,0,0,1,4.27-.279,6.636,6.636,0,0,1,4.1,1.032,3.855,3.855,0,0,1,1.473,3.117,4.194,4.194,0,0,1-1.257,3.193m9.315,5.917a4.691,4.691,0,0,1-5.022-4.871c0-3,1.984-5,5.2-5a4.639,4.639,0,0,1,4.921,4.839,4.777,4.777,0,0,1-5.1,5.034m19.406-.213h-3.261l-.652-2.8c-.2-.873-.336-1.677-.519-2.88h-.039a22.8,22.8,0,0,1-.494,2.85l-.7,2.834h-3.262l-2.713-9.448h3.525l.543,3.479c.152.937.321,2.013.465,3.135h.044c.163-1.122.437-2.222.624-3.109l.757-3.505h2.705l.719,3.355c.221,1.061.462,2.137.629,3.259h.04c.114-1.118.277-2.218.465-3.287l.57-3.327h3.372Zm14.637-3.51h-5.838c.11.749,1.2,1.166,2.421,1.166a8.505,8.505,0,0,0,2.59-.363l.438,2.314a9.63,9.63,0,0,1-3.537.6c-3.33,0-5.206-1.833-5.206-4.824a4.813,4.813,0,0,1,4.9-5.038c3.053,0,4.359,2.241,4.359,4.834a6.272,6.272,0,0,1-.125,1.316m9.915-2.842a3.968,3.968,0,0,0-.883-.1c-1.021,0-1.71.428-1.89,1.192a2.909,2.909,0,0,0-.05.589v4.667h-3.467v-6.26c0-1.5-.023-2.4-.075-3.188h2.957l.125,1.7h.076a2.715,2.715,0,0,1,2.516-1.915,2.762,2.762,0,0,1,.691.057Zm9.28-4.677a3.63,3.63,0,0,0-.886-.1,1.127,1.127,0,0,0-1.175,1.216v.467h1.725v2.534h-1.7v6.914h-3.466V608.68h-1.219v-2.534h1.219v-.318a4.311,4.311,0,0,1,1.225-3.107,4.063,4.063,0,0,1,2.751-.974,6.962,6.962,0,0,1,1.594.168Zm9.394,11.029-.152-1.243h-.07a3.272,3.272,0,0,1-2.865,1.456c-2.108,0-3.348-1.361-3.348-4.092v-5.569h3.467v5.017c0,1.2.4,1.862,1.211,1.862a1.169,1.169,0,0,0,1.115-.8,1.222,1.222,0,0,0,.086-.514v-5.564h3.465v6.232c0,1.33.04,2.415.077,3.216Zm10.453,0H3024.3V601.957h3.467Zm17.464,0-.826-3h-3.346l-.729,3h-3.588l3.755-12.945h4.621l3.859,12.945Zm13.489-6.352a3.967,3.967,0,0,0-.882-.1c-1.022,0-1.711.428-1.893,1.192a3.09,3.09,0,0,0-.048.589v4.667h-3.467v-6.26c0-1.5-.023-2.4-.075-3.188h2.956l.125,1.7h.078a2.713,2.713,0,0,1,2.515-1.915,2.762,2.762,0,0,1,.691.057Zm17.966,6.352h-3.361v-5.041c0-1.172-.342-1.844-1.111-1.844a1.093,1.093,0,0,0-1.056.8,2.407,2.407,0,0,0-.09.7v5.388h-3.363v-5.137c0-1.057-.321-1.748-1.1-1.748a1.139,1.139,0,0,0-1.053.773,1.988,1.988,0,0,0-.1.7v5.412h-3.361v-6.233c0-1.258-.039-2.341-.077-3.215h2.905l.138,1.175h.068a3.321,3.321,0,0,1,2.8-1.387,2.631,2.631,0,0,1,2.552,1.5h.038a4.068,4.068,0,0,1,1.3-1.119,3.554,3.554,0,0,1,1.671-.384c2.037,0,3.209,1.473,3.209,4.1Z" fill="#211815"/>
      <path id="パス_567" data-name="パス 567" d="M2984.327,608.2a1.567,1.567,0,0,0-1.478,1.546h2.817a1.4,1.4,0,0,0-1.339-1.546" fill="#211815"/>
      <path id="パス_568" data-name="パス 568" d="M2941.241,605.159a4.82,4.82,0,0,0-1.027.083v3.3a4.368,4.368,0,0,0,.792.049c1.349,0,2.195-.7,2.195-1.811,0-.965-.639-1.619-1.96-1.619" fill="#211815"/>
      <path id="パス_569" data-name="パス 569" d="M2928.573,591.211a19.022,19.022,0,0,0,0-38.045h-5.18a8.659,8.659,0,1,1,0-17.318h15.692a5.182,5.182,0,0,0,0-10.363h-15.692a19.022,19.022,0,1,0,0,38.044h5.18a8.66,8.66,0,0,1,0,17.319h-19.022a5.181,5.181,0,0,0,0,10.363Z" fill="#211815"/>
      <path id="パス_570" data-name="パス 570" d="M3003.537,555.3a3.866,3.866,0,0,0-7.731,0v31.2a4.7,4.7,0,1,0,9.405,0V572.067c.053-3.233,3.443-4.677,4.742-4.677h5.731v0a3.5,3.5,0,0,0,0-6.994h-5.731a12.089,12.089,0,0,0-6.417,2.144Z" fill="#211815"/>
      <path id="パス_571" data-name="パス 571" d="M3035.925,560.073h0a4.768,4.768,0,0,0-9.536,0v26.369a4.768,4.768,0,1,0,9.536,0Z" fill="#211815"/>
      <path id="パス_572" data-name="パス 572" d="M3098.476,591.211a10.625,10.625,0,0,0,0-21.249h-2.663a3.6,3.6,0,0,1,0-7.2h9.717a3.512,3.512,0,1,0,0-7.024h-9.717a10.623,10.623,0,0,0,0,21.247h2.663a3.6,3.6,0,1,1,0,7.2H3088.7a3.512,3.512,0,1,0,0,7.024Z" fill="#211815"/>
    </g>
  </g>
</svg>
