<svg xmlns="http://www.w3.org/2000/svg" width="49.649" height="67.556"><g id="グループ_1014" data-name="グループ 1014" transform="translate(-1350.45 -1192.903)"><path id="パス_2859" data-name="パス 2859" d="M1376.559 1196.518c16.904 5.414 23.628 23.225 16.319 30.86s-21.22 6.353-28.788 1.065c-8.69-6.078-7.78-14.423-2.14-15.246 3.917-.573 12.935 1.557 18.055 9.01 5.319 7.74 4.598 17.4.663 21.126-4.924 4.653-10.3 3.867-16.158 2.21-8.172-2.309-12.414-9.556-9.05-12.36 2.837-2.365 9.51 2.635 9.977 9.867.396 6.162-1.97 9.968-6.626 11.045a15.512 15.512 0 01-6.465-.195" fill="none" stroke="#1a1311" stroke-linecap="round" stroke-miterlimit="10" stroke-width="2"/></g></svg>