<svg xmlns="http://www.w3.org/2000/svg" width="56.831" height="44.299" viewBox="0 0 56.831 44.299">
  <g id="グループ_963" data-name="グループ 963" transform="translate(-1161.821 -640.278) rotate(-33)">
    <path id="線_102" data-name="線 102" d="M0,18.672a1,1,0,0,1-1-1V0A1,1,0,0,1,0-1,1,1,0,0,1,1,0V17.672A1,1,0,0,1,0,18.672Z" transform="translate(637.432 1190.5)"/>
    <path id="線_103" data-name="線 103" d="M0,14.243a1,1,0,0,1-.561-.173,1,1,0,0,1-.265-1.389l9-13.243A1,1,0,0,1,9.562-.827,1,1,0,0,1,9.827.562L.827,13.8A1,1,0,0,1,0,14.243Z" transform="translate(656.364 1197.186)"/>
    <path id="線_104" data-name="線 104" d="M9,14.243a1,1,0,0,1-.828-.438L-.827.562A1,1,0,0,1-.562-.827,1,1,0,0,1,.827-.562l9,13.243A1,1,0,0,1,9,14.243Z" transform="translate(609.5 1197.186)"/>
  </g>
</svg>
