<svg xmlns="http://www.w3.org/2000/svg" width="56.831" height="44.299"><g id="グループ_963" data-name="グループ 963" transform="rotate(-33 -1661.682 1640.982)"><path id="線_102" data-name="線 102" d="M0 18.672a1 1 0 01-1-1V0a1 1 0 011-1 1 1 0 011 1v17.672a1 1 0 01-1 1z" transform="translate(637.432 1190.5)"/><path id="線_103" data-name="線 103" d="M0 14.243a1 1 0 01-.561-.173 1 1 0 01-.265-1.389l9-13.243a1 1 0 011.388-.265A1 1 0 019.827.562l-9 13.238a1 1 0 01-.827.443z" transform="translate(656.364 1197.186)"/><path id="線_104" data-name="線 104" d="M9 14.243a1 1 0 01-.828-.438L-.827.562A1 1 0 01-.562-.827a1 1 0 011.389.265l9 13.243A1 1 0 019 14.243z" transform="translate(609.5 1197.186)"/></g></svg>